# xmcd CD database file
#
# Track frame offsets:
#	150
#	13093
#	26470
#	41879
#	54656
#	69405
#	84167
#	97970
#	112268
#	125511
#	138622
#	152710
#	167207
#	181310
#	193475
#	206843
#	220078
#	233145
#	247896
#	261678
#	275258
#	288022
#	301079
#
# Disc length: 4201 seconds
#
# Revision: 4
# Processed by: cddbd v1.5.2PL0 Copyright (c) Steve Scherf et al.
# Submitted via: CDex 1.83
#
DISCID=53106717
DTITLE=Bix Beiderbecke - Bix and Tram CD04
DYEAR=1924
DGENRE=Jazz
TTITLE0=Georgia Blues
TTITLE1=Lost My Baby Blues
TTITLE2=Blue River
TTITLE3=In A Mist
TTITLE4=I'm More Than Satisified
TTITLE5=I'm More Than Satisified
TTITLE6=Clorinda
TTITLE7=Clorinda
TTITLE8=Three Blind Mice
TTITLE9=Three Blind Mice
TTITLE10=My Pet
TTITLE11=Singin' The Blues
TTITLE12=What A Day
TTITLE13=Alabammy Snow
TTITLE14=Nobody But You
TTITLE15=Gotta Feelin' For You
TTITLE16=Shivery Stomp
TTITLE17=Reachin' For Someone
TTITLE18=Manhattan Rag
TTITLE19=Manhattan Rag
TTITLE20=Break It Down
TTITLE21=China Boy
TTITLE22=In A Mist
EXTD=YEAR: 1924
EXTT0=
EXTT1=
EXTT2=
EXTT3=
EXTT4=
EXTT5=
EXTT6=
EXTT7=
EXTT8=
EXTT9=
EXTT10=
EXTT11=
EXTT12=
EXTT13=
EXTT14=
EXTT15=
EXTT16=
EXTT17=
EXTT18=
EXTT19=
EXTT20=
EXTT21=
EXTT22=
PLAYORDER=
